<svg xmlns="http://www.w3.org/2000/svg" width="212" height="189" viewBox="0 0 212 189" fill="none">
<path d="M198.106 17.2254L115.502 59.9869L129.951 27.5787L198.106 17.2254Z" fill="#E2761B" stroke="#E2761B" stroke-linecap="round" stroke-linejoin="round"/>
<path d="M13.8518 17.2254L95.9577 60.4144L81.9589 27.5787L13.8518 17.2254Z" fill="#E4761B" stroke="#E4761B" stroke-linecap="round" stroke-linejoin="round"/>
<path d="M169.358 134.175L148.195 164.906L193.403 176.601L206.51 134.812L169.358 134.175Z" fill="#E4761B" stroke="#E4761B" stroke-linecap="round" stroke-linejoin="round"/>
<path d="M5.63086 134.812L18.6858 176.601L63.8935 164.906L42.7309 134.175L5.63086 134.812Z" fill="#E4761B" stroke="#E4761B" stroke-linecap="round" stroke-linejoin="round"/>
<path d="M61.4527 82.3387L49.0229 100.305L93.9037 102.157L92.3105 54.0413L61.4527 82.3387Z" fill="#E4761B" stroke="#E4761B" stroke-linecap="round" stroke-linejoin="round"/>
<path d="M150.476 82.3387L119.352 53.6138L118.023 102.157L162.903 100.305L150.476 82.3387Z" fill="#E4761B" stroke="#E4761B" stroke-linecap="round" stroke-linejoin="round"/>
<path d="M63.8936 164.906L91.0458 152.356L67.4889 135.022L63.8936 164.906Z" fill="#E4761B" stroke="#E4761B" stroke-linecap="round" stroke-linejoin="round"/>
<path d="M120.883 152.356L148.195 164.906L144.44 135.022L120.883 152.356Z" fill="#E4761B" stroke="#E4761B" stroke-linecap="round" stroke-linejoin="round"/>
<path d="M148.195 164.906L120.883 152.356L123.092 169.05L122.794 176.174L148.195 164.906Z" fill="#D7C1B3" stroke="#D7C1B3" stroke-linecap="round" stroke-linejoin="round"/>
<path d="M63.8936 164.906L89.2941 176.174L89.0959 169.05L91.0458 152.356L63.8936 164.906Z" fill="#D7C1B3" stroke="#D7C1B3" stroke-linecap="round" stroke-linejoin="round"/>
<path d="M89.8895 124.249L66.9278 118.059L83.1246 111.144L89.8895 124.249Z" fill="#233447" stroke="#233447" stroke-linecap="round" stroke-linejoin="round"/>
<path d="M122.039 124.249L128.804 111.144L145.06 118.059L122.039 124.249Z" fill="#233447" stroke="#233447" stroke-linecap="round" stroke-linejoin="round"/>
<path d="M63.8934 164.906L67.6871 134.175L42.7307 134.812L63.8934 164.906Z" fill="#CD6116" stroke="#CD6116" stroke-linecap="round" stroke-linejoin="round"/>
<path d="M144.242 134.175L148.195 164.906L169.358 134.812L144.242 134.175Z" fill="#CD6116" stroke="#CD6116" stroke-linecap="round" stroke-linejoin="round"/>
<path d="M162.903 100.305L118.023 102.157L122.039 124.249L128.804 111.144L145.06 118.059L162.903 100.305Z" fill="#CD6116" stroke="#CD6116" stroke-linecap="round" stroke-linejoin="round"/>
<path d="M66.9279 118.059L83.1246 111.144L89.8894 124.249L93.9038 102.157L49.0229 100.305L66.9279 118.059Z" fill="#CD6116" stroke="#CD6116" stroke-linecap="round" stroke-linejoin="round"/>
<path d="M49.0229 100.305L67.4888 135.022L66.9279 118.059L49.0229 100.305Z" fill="#E4751F" stroke="#E4751F" stroke-linecap="round" stroke-linejoin="round"/>
<path d="M145.06 118.059L144.44 135.022L162.903 100.305L145.06 118.059Z" fill="#E4751F" stroke="#E4751F" stroke-linecap="round" stroke-linejoin="round"/>
<path d="M93.9036 102.157L89.8892 124.249L94.8445 149.867L96.3738 116.206L93.9036 102.157Z" fill="#E4751F" stroke="#E4751F" stroke-linecap="round" stroke-linejoin="round"/>
<path d="M118.022 102.157L115.631 116.15L116.945 149.867L122.039 124.249L118.022 102.157Z" fill="#E4751F" stroke="#E4751F" stroke-linecap="round" stroke-linejoin="round"/>
<path d="M122.039 124.249L116.945 149.867L120.883 152.356L144.44 135.022L145.06 118.059L122.039 124.249Z" fill="#F6851B" stroke="#F6851B" stroke-linecap="round" stroke-linejoin="round"/>
<path d="M66.9279 118.059L67.4888 135.022L91.0457 152.356L94.8446 149.867L89.8894 124.249L66.9279 118.059Z" fill="#F6851B" stroke="#F6851B" stroke-linecap="round" stroke-linejoin="round"/>
<path d="M122.794 176.174L123.092 169.05L120.964 167.256H90.9644L89.0957 169.05L89.2939 176.174L63.8936 164.906L72.7226 172.108L90.6851 184.294H121.244L139.326 172.108L148.195 164.906L122.794 176.174Z" fill="#C0AD9E" stroke="#C0AD9E" stroke-linecap="round" stroke-linejoin="round"/>
<path d="M120.883 152.356L116.945 149.867H94.8447L91.0458 152.356L89.0958 169.05L90.9645 167.256H120.964L123.093 169.05L120.883 152.356Z" fill="#161616" stroke="#161616" stroke-linecap="round" stroke-linejoin="round"/>
<path d="M201.981 64.3173L208.747 33.428L198.106 17.2254L120.883 58.6931L150.476 82.3387L192.742 93.9626L202.104 83.9694L198.046 81.2091L204.493 75.5275L199.497 71.9322L205.944 67.1351L201.981 64.3173Z" fill="#763D16" stroke="#763D16" stroke-linecap="round" stroke-linejoin="round"/>
<path d="M3.18164 33.428L9.9464 64.3173L5.9244 67.1351L12.3718 71.9322L7.43552 75.5275L13.8829 81.2091L9.82452 83.9694L19.1255 93.9626L61.4529 82.3387L91.0459 58.6931L13.8224 17.2254L3.18164 33.428Z" fill="#763D16" stroke="#763D16" stroke-linecap="round" stroke-linejoin="round"/>
<path d="M192.742 93.9626L150.476 82.3387L162.903 100.305L144.44 135.022L169.358 134.812H206.51L192.742 93.9626Z" fill="#F6851B" stroke="#F6851B" stroke-linecap="round" stroke-linejoin="round"/>
<path d="M61.4526 82.3387L19.1252 93.9626L5.63086 134.812H42.7307L67.4889 135.022L49.0229 100.305L61.4526 82.3387Z" fill="#F6851B" stroke="#F6851B" stroke-linecap="round" stroke-linejoin="round"/>
<path d="M118.022 102.157L120.883 58.6931L129.951 27.5787H81.9589L90.845 58.6931L93.9037 102.157L94.7635 116.262L94.8447 149.867H116.945L117.025 116.262L118.022 102.157Z" fill="#F6851B" stroke="#F6851B" stroke-linecap="round" stroke-linejoin="round"/>
</svg>