
<svg width="1024" height="1024" viewBox="0 0 1024 1024" fill="none" xmlns="http://www.w3.org/2000/svg">
  <rect width="1024" height="1024" rx="512" fill="#0052FF"/>
  <path d="M512 692c99.41 0 180-80.59 180-180s-80.59-180-180-180-180 80.59-180 180 80.59 180 180 180z" fill="white"/>
  <path d="M512 332c-99.41 0-180 80.59-180 180s80.59 180 180 180 180-80.59 180-180-80.59-180-180-180zm0 288c-59.65 0-108-48.35-108-108s48.35-108 108-108 108 48.35 108 108-48.35 108-108 108z" fill="#0052FF"/>
  <rect x="464" y="464" width="96" height="96" rx="8" fill="#0052FF"/>
</svg>
