<svg width="300" height="185" viewBox="0 0 300 185" fill="none" xmlns="http://www.w3.org/2000/svg">
  <path d="M61.4385 41.3967C112.065 -7.44957 194.437 -7.44957 245.063 41.3967L249.225 45.4113C251.815 47.9254 251.815 52.0746 249.225 54.5887L230.617 72.4602C229.322 73.7173 227.232 73.7173 225.937 72.4602L220.227 66.9697C183.032 31.4515 123.47 31.4515 86.2747 66.9697L80.1522 72.8728C78.8574 74.1299 76.7673 74.1299 75.4725 72.8728L56.8642 55.0013C54.274 52.4872 54.274 48.338 56.8642 45.8239L61.4385 41.3967ZM273.305 68.5455L289.849 84.5542C292.439 87.0684 292.439 91.2176 289.849 93.7317L213.652 167.154C211.064 169.668 206.884 169.668 204.294 167.154C204.294 167.154 204.294 167.154 204.294 167.154L150.826 115.794C150.179 115.165 149.144 115.165 148.497 115.794C148.497 115.794 148.497 115.794 148.497 115.794L95.0298 167.154C92.4396 169.668 88.26 169.668 85.6698 167.154C85.6698 167.154 85.6698 167.154 85.6698 167.154L9.45457 93.7111C6.86435 91.197 6.86435 87.0477 9.45457 84.5336L25.9991 68.5249C28.5894 66.0108 32.769 66.0108 35.3592 68.5249L88.8272 119.885C89.4742 120.514 90.509 120.514 91.156 119.885C91.156 119.885 91.156 119.885 91.156 119.885L144.632 68.5249C147.223 66.0108 151.402 66.0002 153.992 68.5143C153.992 68.5143 153.992 68.5143 153.992 68.5249L207.468 119.885C208.115 120.514 209.15 120.514 209.797 119.885L263.265 68.5455C265.855 66.0314 270.035 66.0314 272.625 68.5455L273.305 68.5455Z" fill="#3B99FC"/>
</svg>